# xmcd
#
# Track frame offsets:
#	150
#	15727
#	33897
#	51132
#	64227
#	82355
#	100195
#	118262
#	133962
#	151142
#	166720
#	184892
#	202127
#	215220
#	233350
#	251190
#	269255
#	284957
#
# Disc length: 4028 seconds
#
# Revision: 1
# Processed by: cddbd v1.5.2PL0 Copyright (c) Steve Scherf et al.
# Submitted via: audiograbber 1.83.01
#
DISCID=170fba12
DTITLE=Various Artist - THR0402
DYEAR=1900
DGENRE=Karaoke
TTITLE0=VOCAL - Fortune Faded
TTITLE1=VOCAL - Away From Me
TTITLE2=VOCAL - All In The Suit That You Wear
TTITLE3=VOCAL - Out Of Control
TTITLE4=VOCAL - Figured You Out
TTITLE5=VOCAL - Beyond The Gray Sky
TTITLE6=VOCAL - How About You
TTITLE7=VOCAL - Stare At The Sun
TTITLE8=VOCAL - Silver And Cold
TTITLE9=Red Hot Chili Peppers - Fortune Faded
TTITLE10=Puddle Of Mudd - Away From Me
TTITLE11=Stone Temple Pilots - All In The Suit That You Wear
TTITLE12=Hoobastank - Out Of Control
TTITLE13=Nickelback - Nickelback
TTITLE14=311 - Beyond The Gray Sky
TTITLE15=Staind - How About You
TTITLE16=Thrice - Stare At The Sun
TTITLE17=AFI - Silver And Cold
EXTD=
EXTT0=
EXTT1=
EXTT2=
EXTT3=
EXTT4=
EXTT5=
EXTT6=
EXTT7=
EXTT8=
EXTT9=
EXTT10=
EXTT11=
EXTT12=
EXTT13=
EXTT14=
EXTT15=
EXTT16=
EXTT17=
PLAYORDER=
